<svg width="32" height="32" xmlns="http://www.w3.org/2000/svg">
 <title/>
 <desc/>

 <g>
  <title>background</title>
  <rect fill="none" id="canvas_background" height="402" width="582" y="-1" x="-1"/>
 </g>
 <g>
  <title>Layer 1</title>
  <path fill="#007f00" id="mail-envelope-open" d="m11.29314,19l-3.29314,-2.79999l0,-8.19793c0,-0.55834 0.4477,-1.00208 0.99996,-1.00208l15.00008,0c0.54525,0 0.99996,0.44864 0.99996,1.00208l0,8.19793l-3.333099,2.79999l-10.37376,0l0,0zm1.176129,1l1.78293,1.51593l4.41974,0l1.80456,-1.51593l-8.00723,0l0,0zm9.71589,0.127001l-2.18516,1.872999l0,0l5.92308,5.07692l0,0l-0.80769,0.80769l-5.995831,-5.139278l-5.223411,0.022799l-0.02115,-0.018129l-5.99038,5.134609l-0.8077,-0.80769l0,0l5.92308,-5.07692l-2.18516,-1.872999l-3.81484,-3.22698l0,-5.540021l-3,2.64l0,1l0,13.005939c0,1.10129 0.88976,1.994061 2.00359,1.994061l20.992811,0c1.10656,0 2.003599,-0.89451 2.003599,-1.994061l0,-14.005939l-3,-2.64l0,5.540021l-3.81484,3.22698l0,0l0,0zm-2.27607,-14.127001l-3.40909,-3l-3.40909,3l6.81818,0l0,0l0,0zm-9.90909,4l0,1l13,0l0,-1l-13,0l0,0zm0,3l0,1l13,0l0,-1l-13,0l0,0zm0,3l0,1l13,0l0,-1l-13,0l0,0z"/>
 </g>
</svg>