<svg width="32" height="32" xmlns="http://www.w3.org/2000/svg">
 <title/>
 <desc/>

 <g>
  <title>background</title>
  <rect fill="none" id="canvas_background" height="402" width="582" y="-1" x="-1"/>
 </g>
 <g>
  <title>Layer 1</title>
  <path fill="#ff0000" id="mail-error" d="m21.53228,19.02767l-3.53228,-3.02767l5.92308,-5.07692l0,0l-0.80769,-0.807691l-8.615391,7.38461l-8.61538,-7.38461l-0.8077,0.807691l0,0l5.92308,5.07692l-5.92308,5.07692l0,0l0.8077,0.80769l5.99038,-5.134609l2.625,2.25l2.625,-2.25l3.81933,3.27372l-2.347111,3.97628l-14.593629,0c-1.11383,0 -2.00359,-0.892771 -2.00359,-1.994061l0,-12.01188c0,-1.099549 0.89704,-1.99406 2.00359,-1.99406l20.992811,0c1.11384,0 2.003599,0.89277 2.003599,1.99406l0,8.241231l-2.5,-4.235291l-2.96772,5.02767l0,0l0,0zm2.96772,-3.02767l6.5,11l-13,0l6.5,-11l0,0zm-0.5,4l0,3l1,0l0,-3l-1,0l0,0zm0,4l0,1l1,0l0,-1l-1,0l0,0z"/>
 </g>
</svg>